<svg width="92" height="34" viewBox="0 0 92 34" fill="none" xmlns="http://www.w3.org/2000/svg">
<path d="M81.02 22.7555C67.057 23.0558 53.9948 29.0614 40.0318 29.8121C35.978 29.9622 31.9243 29.5118 28.7713 27.7101C34.4766 26.6594 39.8817 24.7076 43.9355 20.9538C48.2898 17.0504 48.7399 9.8437 46.0374 4.73894C43.485 -0.0655339 37.029 -0.215673 32.5248 0.985447C21.8646 3.53758 14.6582 16.2995 20.6635 25.3076C14.0574 25.7581 7.45119 25.3076 0.995174 25.6082C-0.356086 25.758 -0.356086 27.7099 1.14531 27.7099C7.75147 28.1603 15.7089 28.7608 23.5162 28.3104C23.9666 28.611 24.417 29.0614 24.8674 29.3614C40.7823 40.4718 64.054 26.5087 81.1699 26.0583C83.1217 25.9082 83.1218 22.6054 81.02 22.7555ZM22.0148 19.1519C20.3632 12.9964 25.7683 7.7415 30.7229 5.18887C35.6775 2.63649 42.7341 2.6365 44.3856 9.09251C46.3375 16.5995 39.8814 21.1035 33.7257 23.0555C30.873 23.9564 28.1705 24.5569 25.3179 24.8572C23.6666 23.3558 22.6156 21.5541 22.0148 19.1519Z" fill="black"/>
<path d="M91.2292 22.9054C89.1275 21.5542 87.1757 20.2029 85.2239 18.8519C83.5723 17.6508 81.9208 16.2995 79.969 15.8491C78.4676 15.3987 76.9662 17.6508 78.3174 18.7015C79.969 19.9026 81.7707 20.9536 83.4225 22.0046C84.6236 22.7555 85.8247 23.6561 86.8754 24.4068C85.6743 25.0074 84.4732 25.4578 83.2721 26.0584C82.3712 26.5088 81.3202 26.9592 80.4194 27.4096C80.1191 27.5598 79.8188 27.86 79.6685 28.1603C79.218 28.7609 79.5186 28.4608 79.6685 28.3105C79.0681 28.7609 79.0681 30.2623 80.1191 30.1121C80.4194 30.2623 80.7194 30.2623 81.1699 30.2623C82.2208 29.962 83.4222 29.5116 84.4729 29.0612C86.7253 28.1601 88.9771 27.2592 91.0793 26.0584C92.2802 25.1578 92.2802 23.506 91.2292 22.9054Z" fill="black"/>
</svg>
