<svg width="78" height="16" viewBox="0 0 78 16" fill="none" xmlns="http://www.w3.org/2000/svg">
<path d="M64.8224 15.0827C69.6458 14.118 73.78 11.6375 77.5011 8.60569C78.3279 7.91642 78.0521 6.53833 77.2252 5.98709C72.8154 3.50653 67.9921 1.4394 62.8934 0.888167C61.3775 0.750358 61.2394 3.09311 62.6175 3.36873C66.3383 4.33339 69.9216 5.71148 73.3666 7.50299C72.4019 8.19204 71.2995 8.88131 70.197 9.43254C71.1617 8.46788 70.7482 6.26271 68.9567 6.26271C46.4939 6.1249 23.3422 1.02597 1.1548 5.02243C-0.636711 5.29805 -0.223282 8.32984 1.56823 8.19203C24.1689 6.40052 46.3558 9.84597 68.9567 9.98378C69.0945 9.98378 69.2323 9.98378 69.2323 9.98378C67.5786 10.8106 65.9249 11.3616 63.9956 11.7753C61.7907 12.0511 62.6175 15.4961 64.8224 15.0827Z" fill="black"/>
</svg>
