<?xml version="1.0" encoding="iso-8859-1"?>
<!-- Generator: Adobe Illustrator 18.0.0, SVG Export Plug-In . SVG Version: 6.00 Build 0)  -->
<!DOCTYPE svg PUBLIC "-//W3C//DTD SVG 1.1//EN" "http://www.w3.org/Graphics/SVG/1.1/DTD/svg11.dtd">
<svg version="1.1" id="Capa_1" xmlns="http://www.w3.org/2000/svg" xmlns:xlink="http://www.w3.org/1999/xlink" x="0px" y="0px"
	 viewBox="0 0 428.764 428.764" style="enable-background:new 0 0 428.764 428.764;" xml:space="preserve">
<g>
	<path d="M365.973,62.791C325.482,22.3,271.646,0,214.382,0C157.119,0,103.283,22.3,62.791,62.791C22.3,103.282,0,157.118,0,214.382
		s22.3,111.1,62.791,151.591c40.492,40.492,94.328,62.791,151.591,62.791c57.264,0,111.1-22.299,151.591-62.791
		c40.491-40.491,62.791-94.327,62.791-151.591S406.464,103.282,365.973,62.791z M214.382,413.764
		C104.442,413.764,15,324.322,15,214.382S104.442,15,214.382,15c109.94,0,199.382,89.442,199.382,199.382
		S324.322,413.764,214.382,413.764z"/>
	<path d="M214.382,30.356c-101.472,0-184.026,82.554-184.026,184.026s82.554,184.026,184.026,184.026
		s184.026-82.554,184.026-184.026S315.854,30.356,214.382,30.356z M214.382,383.408c-93.201,0-169.026-75.825-169.026-169.026
		S121.181,45.356,214.382,45.356c93.202,0,169.026,75.825,169.026,169.026S307.583,383.408,214.382,383.408z"/>
	<path d="M362.748,207.736l-81.855-20.271l43.548-72.209c1.78-2.952,1.318-6.738-1.119-9.176c-2.438-2.438-6.225-2.9-9.177-1.119
		l-72.209,43.549l-20.271-81.848c-0.829-3.347-3.833-5.697-7.28-5.697c-3.448,0-6.451,2.35-7.28,5.697l-20.271,81.848
		l-72.209-43.549c-2.954-1.781-6.738-1.32-9.177,1.119c-2.438,2.438-2.9,6.224-1.12,9.177l43.543,72.211l-81.849,20.27
		c-3.346,0.829-5.697,3.832-5.697,7.28s2.351,6.451,5.697,7.28l81.846,20.275l-43.539,72.206c-1.78,2.953-1.318,6.738,1.12,9.176
		c1.446,1.446,3.366,2.197,5.306,2.197c1.33,0,2.669-0.353,3.871-1.077l72.209-43.542l20.271,81.848
		c0.829,3.347,3.832,5.697,7.28,5.697c3.447,0,6.451-2.35,7.28-5.697l20.271-81.848l72.209,43.542
		c1.201,0.724,2.54,1.077,3.87,1.077c1.939,0,3.86-0.751,5.307-2.197c2.438-2.438,2.899-6.224,1.119-9.176l-43.545-72.204
		l81.852-20.276c3.347-0.829,5.697-3.833,5.697-7.28S366.094,208.565,362.748,207.736z M295.952,133.449l-30.3,50.241l-15.983-3.958
		l-3.958-15.983L295.952,133.449z M203.341,214.506c0-6.088,4.954-11.042,11.042-11.042s11.042,4.954,11.042,11.042
		s-4.953,11.042-11.042,11.042S203.341,220.594,203.341,214.506z M214.385,99.659l20.793,83.957l-8.14,8.14
		c-3.749-2.094-8.064-3.293-12.655-3.293c-4.59,0-8.904,1.198-12.652,3.291l-8.138-8.138L214.385,99.659z M132.814,133.448
		l50.245,30.303l-3.958,15.983l-15.989,3.96L132.814,133.448z M182.985,194.223l8.292,8.292c-1.872,3.592-2.936,7.668-2.936,11.991
		c0,4.592,1.199,8.907,3.294,12.657l-8.65,8.654l-83.964-20.8L182.985,194.223z M132.812,296.59l30.297-50.243l15.993,3.962
		l3.958,15.982L132.812,296.59z M214.385,330.382l-20.793-83.958l8.805-8.809c3.591,1.87,7.665,2.934,11.986,2.934
		c4.32,0,8.394-1.064,11.985-2.934l8.811,8.81L214.385,330.382z M295.955,296.587l-50.244-30.297l3.958-15.982l15.987-3.96
		L295.955,296.587z M245.784,235.817l-3.839-3.839l-4.815-4.815c2.095-3.75,3.294-8.065,3.294-12.657
		c0-4.321-1.064-8.396-2.934-11.987l8.295-8.295l83.963,20.793L245.784,235.817z"/>
</g>
<g>
</g>
<g>
</g>
<g>
</g>
<g>
</g>
<g>
</g>
<g>
</g>
<g>
</g>
<g>
</g>
<g>
</g>
<g>
</g>
<g>
</g>
<g>
</g>
<g>
</g>
<g>
</g>
<g>
</g>
</svg>
