<svg width="80" height="80" viewBox="0 0 80 80" fill="none" xmlns="http://www.w3.org/2000/svg">
<path d="M72.5 38.75C69.0538 38.75 66.25 35.9462 66.25 32.5C66.25 29.0538 69.0538 26.25 72.5 26.25C75.9462 26.25 78.75 29.0538 78.75 32.5C78.75 35.9462 75.9462 38.75 72.5 38.75ZM72.5 28.75C70.4325 28.75 68.75 30.4325 68.75 32.5C68.75 34.5675 70.4325 36.25 72.5 36.25C74.5675 36.25 76.25 34.5675 76.25 32.5C76.25 30.4325 74.5675 28.75 72.5 28.75Z" fill="black"/>
<path d="M52.5 13.75C49.0538 13.75 46.25 10.9462 46.25 7.5C46.25 4.05375 49.0538 1.25 52.5 1.25C55.9462 1.25 58.75 4.05375 58.75 7.5C58.75 10.9462 55.9462 13.75 52.5 13.75ZM52.5 3.75C50.4325 3.75 48.75 5.4325 48.75 7.5C48.75 9.5675 50.4325 11.25 52.5 11.25C54.5675 11.25 56.25 9.5675 56.25 7.5C56.25 5.4325 54.5675 3.75 52.5 3.75Z" fill="black"/>
<path d="M60.0012 78.7501C59.5825 78.7501 59.1763 78.5401 58.94 78.1626L53.3638 69.2414C52.7988 68.3364 52.5 67.2951 52.5 66.2276C52.5 65.1976 52.7812 64.1864 53.31 63.3026L55.69 59.3339L49.2125 56.5576L44.7888 63.1926C44.5988 63.4789 44.2975 63.6739 43.96 63.7314C43.6187 63.7851 43.2737 63.7051 42.9987 63.4989L37.9987 59.7489C37.4675 59.3514 37.3412 58.6076 37.7087 58.0564L44.19 48.3364C45.3925 46.5314 47.8125 45.7789 49.8287 46.5864L54.5525 48.4751L59.6575 41.3289L51.5588 32.0739C51.125 31.5789 51.1512 30.8314 51.6162 30.3664L55.3662 26.6164C55.6138 26.3689 55.9637 26.2464 56.3062 26.2514C56.6575 26.2676 56.985 26.4301 57.2113 26.7001L63.3675 34.0876L68.25 37.7501C68.3912 37.8551 68.5075 37.9889 68.5925 38.1426L74.8425 49.3926C75.0138 49.6989 75.0463 50.0626 74.935 50.3951L71.185 61.6451C71.0713 61.9889 70.8125 62.2664 70.4787 62.4039C70.1437 62.5414 69.7663 62.5301 69.4413 62.3676L65.4987 60.3964L61.4687 67.4489L66.04 74.3064C66.2388 74.6051 66.3 74.9739 66.2087 75.3214C66.1162 75.6676 65.88 75.9576 65.5587 76.1189L60.5587 78.6189C60.38 78.7076 60.1887 78.7501 60.0012 78.7501ZM48.75 53.7501C48.9163 53.7501 49.0838 53.7826 49.2425 53.8514L57.9925 57.6014C58.325 57.7439 58.5787 58.0214 58.69 58.3651C58.8012 58.7089 58.7588 59.0826 58.5725 59.3926L55.455 64.5889C55.1575 65.0851 55 65.6514 55 66.2276C55 66.8264 55.1675 67.4089 55.4838 67.9151L60.4575 75.8726L63.175 74.5151L58.96 68.1926C58.6975 67.7989 58.6787 67.2901 58.915 66.8789L63.8387 58.2601L66.2975 49.6551L68.7025 50.3426L66.4875 58.0951L69.2712 59.4864L72.3912 50.1251L66.5375 39.5889L61.75 36.0001C61.6725 35.9426 61.6012 35.8751 61.5387 35.8001L56.165 29.3514L54.21 31.3064L62.1912 40.4264C62.5725 40.8626 62.6037 41.5039 62.2675 41.9764L56.0175 50.7264C55.6825 51.1951 55.0688 51.3739 54.5363 51.1614L48.9 48.9076C47.9562 48.5289 46.8325 48.8814 46.27 49.7239L40.445 58.4601L43.4412 60.7076L47.7087 54.3064C47.9475 53.9501 48.3425 53.7501 48.75 53.7501Z" fill="black"/>
<path d="M43.4287 38.75H32.5C31.8088 38.75 31.25 38.19 31.25 37.5V32.5C31.25 31.81 31.8088 31.25 32.5 31.25H35.2925L31.5875 29.1325L24.75 38.25C24.5137 38.565 24.1425 38.75 23.75 38.75H10C9.30875 38.75 8.75 38.19 8.75 37.5V32.5C8.75 31.81 9.30875 31.25 10 31.25H19.3062L26.0163 20.5137L23.0562 18.54C22.4937 18.165 22.3313 17.4113 22.69 16.8375L28.94 6.8375C29.1688 6.4725 29.5688 6.25 30 6.25H42.5C42.9175 6.25 43.3075 6.45875 43.54 6.80625L48.54 14.3062L54.7663 23.0238C55.1213 23.52 55.065 24.2013 54.6338 24.6338L50.8838 28.3838C50.6275 28.64 50.2863 28.7687 49.9113 28.7475C49.55 28.7212 49.2175 28.54 49 28.2512L45.25 23.2512L43.905 21.2362L41.6113 25.8237L46.38 29.0025C47.8638 29.99 48.75 31.645 48.75 33.4287C48.75 36.3625 46.3638 38.75 43.4287 38.75ZM33.75 36.25H43.4287C44.9837 36.25 46.25 34.985 46.25 33.4287C46.25 32.4837 45.78 31.6062 44.9937 31.0812L39.3062 27.29C38.7812 26.94 38.6 26.255 38.8812 25.6912L42.6312 18.1913C42.83 17.7925 43.2275 17.53 43.6712 17.5025C44.1362 17.4662 44.5413 17.6862 44.79 18.0562L47.29 21.8062L50.135 25.5975L52.1175 23.615L46.4825 15.7263L41.8312 8.75H30.6938L25.4538 17.1337L27.3438 18.3938L31.4412 11.8387L33.56 13.1638L21.06 33.1637C20.8312 33.5275 20.4312 33.75 20 33.75H11.25V36.25H23.125L30.25 26.75C30.6275 26.245 31.3188 26.1 31.87 26.415L40.62 31.415C41.1125 31.6962 41.3537 32.2738 41.2087 32.8213C41.0637 33.3687 40.5662 33.75 40 33.75H33.75V36.25Z" fill="black"/>
<path d="M20 78.75H2.5C1.80875 78.75 1.25 78.19 1.25 77.5V42.5C1.25 41.81 1.80875 41.25 2.5 41.25H43.75C44.2125 41.25 44.6375 41.5063 44.855 41.915C45.0712 42.3238 45.0438 42.8188 44.7837 43.2025L21.0337 78.2025C20.8025 78.545 20.4137 78.75 20 78.75ZM3.75 76.25H19.3375L41.3925 43.75H3.75V76.25Z" fill="black"/>
</svg>
