<svg width="86" height="86" viewBox="0 0 86 86" fill="none" xmlns="http://www.w3.org/2000/svg">
<path d="M14.1802 14.6394L15.3822 12.2354L23.4447 16.2666L22.2427 18.6707L14.1802 14.6394Z" fill="black"/>
<path d="M62.2424 15.604L70.7932 12.7523L71.6436 15.302L63.0928 18.1537L62.2424 15.604Z" fill="black"/>
<path d="M9.40625 29.5625H17.4688V32.25H9.40625V29.5625Z" fill="black"/>
<path d="M68.5312 29.5625H76.5938V32.25H68.5312V29.5625Z" fill="black"/>
<path d="M14.1802 49.8604L22.2427 45.8291L23.4447 48.2332L15.3822 52.2644L14.1802 49.8604Z" fill="black"/>
<path d="M62.5554 48.2332L63.7574 45.8291L71.8199 49.8604L70.6179 52.2644L62.5554 48.2332Z" fill="black"/>
<path d="M51.6407 48.4583C55.0881 47.0582 58.0322 44.6493 60.0871 41.5472C62.142 38.4452 63.2118 34.7947 63.1563 31.0742C63.1563 20.6083 54.1143 12.0938 43.0001 12.0938C31.8859 12.0938 22.8438 20.6083 22.8438 31.0742C22.7884 34.7947 23.8582 38.4452 25.9131 41.5472C27.968 44.6493 30.9121 47.0582 34.3595 48.4583L34.5157 48.543L35.5828 50.2939C35.0666 50.5927 34.624 51.0035 34.2877 51.4962C33.9514 51.9888 33.7299 52.5506 33.6397 53.1402C33.5494 53.7298 33.5927 54.3322 33.7662 54.9028C33.9397 55.4735 34.2391 55.998 34.6423 56.4375C34.1169 57.0135 33.7705 57.7301 33.6456 58.4997C33.5208 59.2693 33.6227 60.0586 33.9391 60.7712C34.2554 61.4838 34.7725 62.0888 35.4271 62.5124C36.0817 62.9359 36.8454 63.1597 37.6251 63.1562H48.3751C49.1548 63.1597 49.9185 62.9359 50.5731 62.5124C51.2277 62.0888 51.7448 61.4838 52.0611 60.7712C52.3775 60.0586 52.4794 59.2693 52.3546 58.4997C52.2297 57.7301 51.8833 57.0135 51.3579 56.4375C51.7611 55.998 52.0605 55.4735 52.234 54.9028C52.4075 54.3322 52.4508 53.7298 52.3605 53.1402C52.2703 52.5506 52.0488 51.9888 51.7125 51.4962C51.3762 51.0035 50.9336 50.5927 50.4174 50.2939L51.4845 48.543L51.6407 48.4583ZM48.3751 60.4688H37.6251C37.2687 60.4688 36.9269 60.3272 36.6749 60.0752C36.4229 59.8232 36.2813 59.4814 36.2813 59.125C36.2813 58.7686 36.4229 58.4268 36.6749 58.1748C36.9269 57.9228 37.2687 57.7812 37.6251 57.7812H48.3751C48.7315 57.7812 49.0733 57.9228 49.3253 58.1748C49.5773 58.4268 49.7188 58.7686 49.7188 59.125C49.7188 59.4814 49.5773 59.8232 49.3253 60.0752C49.0733 60.3272 48.7315 60.4688 48.3751 60.4688ZM48.3751 55.0938H37.6251C37.2687 55.0938 36.9269 54.9522 36.6749 54.7002C36.4229 54.4482 36.2813 54.1064 36.2813 53.75C36.2813 53.3936 36.4229 53.0518 36.6749 52.7998C36.9269 52.5478 37.2687 52.4062 37.6251 52.4062H48.3751C48.7315 52.4062 49.0733 52.5478 49.3253 52.7998C49.5773 53.0518 49.7188 53.3936 49.7188 53.75C49.7188 54.1064 49.5773 54.4482 49.3253 54.7002C49.0733 54.9522 48.7315 55.0938 48.3751 55.0938ZM50.4209 46.0621L49.8835 46.3541C49.6756 46.4675 49.5011 46.6336 49.3777 46.8357L47.6206 49.7188H47.0313V39.5251L53.3564 33.2001L51.4563 31.3L44.7376 38.0187C44.4856 38.2707 44.3439 38.6124 44.3438 38.9688V49.7188H41.6563V38.9688C41.6563 38.6124 41.5146 38.2707 41.2626 38.0187L34.5439 31.3L32.6438 33.2L38.9688 39.5251V49.7188H38.3796L36.6225 46.8357C36.4991 46.6336 36.3246 46.4675 36.1167 46.3541L35.5793 46.0621C35.5362 46.0391 35.492 46.0183 35.4468 45.9998C32.479 44.8058 29.9428 42.7404 28.1727 40.0758C26.4026 37.4113 25.4816 34.2728 25.5313 31.0742C25.5313 22.0905 33.3675 14.7812 43.0001 14.7812C52.6327 14.7812 60.4688 22.0905 60.4688 31.0742C60.5186 34.2728 59.5976 37.4113 57.8275 40.0758C56.0574 42.7404 53.5212 44.8058 50.5534 45.9998C50.5082 46.0183 50.464 46.0391 50.4209 46.0621Z" fill="black"/>
<path d="M41.6562 2.6875H44.3438V9.40625H41.6562V2.6875Z" fill="black"/>
<path d="M81.9688 65.8438V63.1562C64.4377 63.1562 45.8082 67.3942 45.6882 75.25H40.3118C40.1918 67.3942 21.5623 63.1562 4.03125 63.1562V65.8438C23.717 65.8438 37.4633 70.7844 37.6178 75.25H4.03125V77.9375H81.9688V75.25H48.3822C48.5367 70.7844 62.283 65.8438 81.9688 65.8438Z" fill="black"/>
<path d="M3.96069 72.5605L4.10193 69.877L29.6332 71.2207L29.492 73.9043L3.96069 72.5605Z" fill="black"/>
<path d="M56.3667 71.2231L81.8977 69.8748L82.0394 72.5584L56.5084 73.9067L56.3667 71.2231Z" fill="black"/>
</svg>
