<svg id="Layer_3" enable-background="new 0 0 64 64" height="512" viewBox="0 0 64 64" width="512" xmlns="http://www.w3.org/2000/svg"><path d="m53 48v-2c0-2.757-2.243-5-5-5h-39v2h2v8h-2v2h3.026c-.635.838-1.026 1.87-1.026 3v2c0 2.757 2.243 5 5 5h39v-2h-2v-8h2v-2h-3.026c.635-.838 1.026-1.87 1.026-3zm-2-2v2c0 1.654-1.346 3-3 3h-1v-8h1c1.654 0 3 1.346 3 3zm-34-3h6v3.382l-2.553-1.276c-.281-.141-.613-.141-.895 0l-2.552 1.276zm-4 0h2v5c0 .347.18.668.474.851.295.182.664.198.973.044l3.553-1.777 3.553 1.776c.141.071.294.106.447.106.183 0 .365-.05.526-.149.294-.183.474-.504.474-.851v-5h20v8h-29-3zm0 15v-2c0-1.654 1.346-3 3-3h1v8h-1c-1.654 0-3-1.346-3-3zm38 3h-32v-8h29 3z"/><path d="m54 1h-13.858c-2.938 0-5.7 1.144-7.778 3.222l-.364.364-.364-.364c-2.078-2.078-4.84-3.222-7.778-3.222h-13.858c-.552 0-1 .448-1 1v32c0 .552.448 1 1 1h1v3c0 .552.448 1 1 1h15v-2h-14v-2h10.858c2.404 0 4.664.936 6.364 2.636l1.071 1.071c.195.195.451.293.707.293s.512-.098.707-.293l1.071-1.071c1.7-1.7 3.96-2.636 6.364-2.636h10.858v2h-14v2h15c.552 0 1-.448 1-1v-3h1c.552 0 1-.448 1-1v-32c0-.552-.448-1-1-1zm-30.142 32h-12.858v-30h12.858c2.404 0 4.664.936 6.364 2.636l.778.778v29.231c-1.991-1.707-4.492-2.645-7.142-2.645zm29.142 0h-12.858c-2.65 0-5.152.938-7.142 2.645v-29.231l.778-.778c1.7-1.7 3.96-2.636 6.364-2.636h12.858z"/><path d="m13 5h12v2h-12z"/><path d="m13 9h12v2h-12z"/><path d="m13 13h12v2h-12z"/><path d="m13 17h16v2h-16z"/><path d="m13 21h16v2h-16z"/><path d="m39 13h12v2h-12z"/><path d="m39 17h12v2h-12z"/><path d="m39 21h12v2h-12z"/><path d="m35 25h16v2h-16z"/><path d="m35 29h16v2h-16z"/></svg>