<?xml version="1.0" encoding="iso-8859-1"?>
<!-- Generator: Adobe Illustrator 18.0.0, SVG Export Plug-In . SVG Version: 6.00 Build 0)  -->
<!DOCTYPE svg PUBLIC "-//W3C//DTD SVG 1.1//EN" "http://www.w3.org/Graphics/SVG/1.1/DTD/svg11.dtd">
<svg version="1.1" id="Capa_1" xmlns="http://www.w3.org/2000/svg" xmlns:xlink="http://www.w3.org/1999/xlink" x="0px" y="0px"
	 viewBox="0 0 459.704 459.704" style="enable-background:new 0 0 459.704 459.704;" xml:space="preserve">
<g>
	<path d="M392.381,67.322C348.968,23.909,291.248,0,229.852,0c-61.396,0-119.117,23.909-162.53,67.322
		C23.909,110.735,0,168.456,0,229.852c0,61.396,23.909,119.117,67.322,162.53c43.413,43.414,101.134,67.322,162.53,67.322
		c61.396,0,119.116-23.909,162.529-67.322c43.414-43.413,67.322-101.134,67.322-162.53
		C459.704,168.456,435.795,110.735,392.381,67.322z M319.595,308.983c19.336-21.869,29.908-49.686,29.908-79.132
		c0-29.445-10.572-57.262-29.908-79.131l67.384-67.384c37.274,39.906,57.724,91.636,57.724,146.516
		c0,54.88-20.45,106.61-57.724,146.516L319.595,308.983z M155.852,303.852c-17.492-17.492-28.022-40.086-30.216-64.426
		c5.906,2.623,12.347,4.01,18.969,4.01c10.444,0,20.308-3.37,28.417-9.608c8.104,6.238,17.965,9.608,28.413,9.608
		c10.451,0,20.315-3.37,28.42-9.606c8.103,6.237,17.964,9.606,28.41,9.606c10.444,0,20.308-3.371,28.417-9.608
		c8.104,6.238,17.965,9.608,28.413,9.608c6.623,0,13.065-1.386,18.972-4.008c-2.194,24.339-12.724,46.933-30.216,64.424
		c-19.766,19.766-46.046,30.651-74,30.651C201.898,334.503,175.618,323.618,155.852,303.852z M155.852,155.852
		c19.766-19.766,46.046-30.651,74-30.651c27.953,0,54.233,10.885,74,30.651c17.912,17.912,28.531,41.174,30.366,66.182
		c-5.476,4.146-12.149,6.402-19.122,6.402c-8.769,0-16.93-3.496-22.981-9.845c-1.415-1.484-3.375-2.325-5.426-2.325
		c-0.001,0-0.001,0-0.002,0c-2.05,0-4.01,0.839-5.425,2.322c-6.062,6.351-14.228,9.848-22.995,9.848
		c-8.769,0-16.93-3.496-22.981-9.845c-1.415-1.485-3.377-2.325-5.429-2.325s-4.014,0.84-5.429,2.325
		c-6.051,6.349-14.216,9.845-22.991,9.845c-8.769,0-16.93-3.496-22.981-9.845c-1.415-1.484-3.375-2.325-5.426-2.325
		c-0.001,0-0.001,0-0.002,0c-2.05,0-4.01,0.839-5.426,2.322c-6.061,6.351-14.227,9.848-22.994,9.848
		c-6.97,0-13.643-2.258-19.119-6.407C127.322,197.022,137.941,173.762,155.852,155.852z M376.374,72.729l-67.384,67.384
		c-21.87-19.339-49.689-29.913-79.137-29.913c-29.446,0-57.263,10.572-79.132,29.908L83.336,72.724
		C123.242,35.45,174.972,15,229.852,15C284.735,15,336.467,35.452,376.374,72.729z M15,229.852
		c0-54.883,20.452-106.614,57.729-146.521l67.384,67.384c-19.339,21.87-29.913,49.689-29.913,79.137
		c0,29.448,10.574,57.267,29.914,79.138L72.73,376.373C35.452,336.467,15,284.734,15,229.852z M83.336,386.98l67.385-67.385
		c21.869,19.336,49.686,29.908,79.131,29.908c29.448,0,57.267-10.574,79.137-29.913l67.385,67.384
		c-39.907,37.277-91.639,57.729-146.521,57.729C174.972,444.704,123.242,424.254,83.336,386.98z"/>
	<path d="M235.531,58.451c33.251,1.094,65.171,11.683,92.309,30.62c1.307,0.913,2.804,1.35,4.286,1.35
		c2.368,0,4.699-1.119,6.157-3.208c2.371-3.397,1.539-8.072-1.858-10.442c-29.523-20.602-64.24-32.121-100.399-33.312
		c-4.142-0.125-7.606,3.109-7.743,7.25C228.146,54.848,231.391,58.314,235.531,58.451z"/>
	<path d="M394.962,143.038c-2.735-5.197-5.753-10.323-8.971-15.236c-2.27-3.465-6.918-4.435-10.383-2.165
		c-3.465,2.27-4.434,6.918-2.165,10.383c2.957,4.515,5.731,9.227,8.246,14.003c1.342,2.551,3.947,4.008,6.643,4.008
		c1.178,0,2.372-0.278,3.487-0.865C395.484,151.239,396.892,146.703,394.962,143.038z"/>
	<path d="M409.054,178.09c-1.146-3.979-5.298-6.279-9.282-5.132c-3.98,1.146-6.278,5.302-5.132,9.282
		c8.006,27.808,8.853,57.439,2.45,85.69c-0.916,4.04,1.617,8.057,5.657,8.972c0.558,0.126,1.115,0.187,1.665,0.187
		c3.425,0,6.519-2.362,7.308-5.844C418.679,240.535,417.758,208.323,409.054,178.09z"/>
	<path d="M258.265,292.356c12.906,0,24.926-5.146,33.845-14.492c2.86-2.997,2.75-7.744-0.247-10.604
		c-2.996-2.861-7.744-2.749-10.604,0.247c-6.062,6.351-14.228,9.848-22.995,9.848c-8.769,0-16.93-3.496-22.981-9.845
		c-1.415-1.485-3.377-2.325-5.429-2.325s-4.014,0.84-5.429,2.325c-6.051,6.349-14.216,9.845-22.991,9.845
		c-8.769,0-16.93-3.496-22.981-9.845c-2.857-2.999-7.605-3.112-10.604-0.254c-2.998,2.857-3.112,7.605-0.254,10.604
		c8.909,9.347,20.927,14.495,33.839,14.495c10.451,0,20.315-3.37,28.42-9.606C237.958,288.986,247.819,292.356,258.265,292.356z"/>
</g>
<g>
</g>
<g>
</g>
<g>
</g>
<g>
</g>
<g>
</g>
<g>
</g>
<g>
</g>
<g>
</g>
<g>
</g>
<g>
</g>
<g>
</g>
<g>
</g>
<g>
</g>
<g>
</g>
<g>
</g>
</svg>
