<?xml version="1.0" encoding="iso-8859-1"?>
<!-- Generator: Adobe Illustrator 18.0.0, SVG Export Plug-In . SVG Version: 6.00 Build 0)  -->
<!DOCTYPE svg PUBLIC "-//W3C//DTD SVG 1.1//EN" "http://www.w3.org/Graphics/SVG/1.1/DTD/svg11.dtd">
<svg version="1.1" id="Capa_1" xmlns="http://www.w3.org/2000/svg" xmlns:xlink="http://www.w3.org/1999/xlink" x="0px" y="0px"
	 viewBox="0 0 430.047 430.047" style="enable-background:new 0 0 430.047 430.047;" xml:space="preserve">
<g>
	<path d="M349.496,295.49c4.143,0,7.5-3.358,7.5-7.5s-3.357-7.5-7.5-7.5h-4.412v-25.436c24.041-27.134,41.216-47.612,41.216-91.558
		c0-45.348-17.865-87.033-50.304-117.376C304.201,16.379,261.286,0,215.16,0l-1.351,0.004C165.6,0.339,121.397,18.479,89.343,51.081
		c-29.831,30.342-46.021,70.886-45.588,114.166c0.429,42.76,16.58,62.016,41.207,89.809v25.436h-4.421c-4.143,0-7.5,3.358-7.5,7.5
		s3.357,7.5,7.5,7.5h4.421v55.384h-4.421c-4.143,0-7.5,3.358-7.5,7.5s3.357,7.5,7.5,7.5h4.421v9.997
		c0,18.99,15.449,34.439,34.439,34.439h1.126v12.236c0,4.142,3.357,7.5,7.5,7.5s7.5-3.358,7.5-7.5v-12.236h158.991v12.236
		c0,4.142,3.357,7.5,7.5,7.5s7.5-3.358,7.5-7.5v-12.236h1.127c18.989,0,34.438-15.449,34.438-34.439v-9.997h4.412
		c4.143,0,7.5-3.358,7.5-7.5s-3.357-7.5-7.5-7.5h-4.412V295.49H349.496z M99.962,266.199c5.96,3.166,13.756,6.205,22.73,7.078
		c0.247,0.024,0.491,0.036,0.734,0.036c3.815,0,7.079-2.899,7.456-6.775c0.4-4.123-2.616-7.79-6.739-8.19
		c-15.083-1.466-26.273-11.503-26.443-11.658c-0.095-0.088-0.197-0.161-0.306-0.223c-24.673-27.821-38.26-43.483-38.64-81.371
		c-0.394-39.264,14.269-76.021,41.284-103.499c29.238-29.739,69.68-46.286,113.873-46.592L215.16,15
		c42.308,0,81.583,14.942,110.59,42.075c29.374,27.476,45.551,65.271,45.551,106.421c0,39.229-14.683,55.948-39.023,83.393
		c-1.651,1.419-12.263,10.101-26.213,11.457c-4.123,0.401-7.14,4.068-6.739,8.19c0.377,3.876,3.641,6.775,7.456,6.775
		c0.242,0,0.488-0.012,0.734-0.036c8.892-0.865,16.631-3.856,22.569-6.99v14.204h-75.747v-13.393c0-4.142-3.357-7.5-7.5-7.5h-24.318
		v-42.409c37.284-3.769,66.482-35.338,66.482-73.599c0-19.697-7.777-39.84-21.339-55.264c-14.357-16.33-33.052-25.323-52.639-25.323
		s-38.281,8.993-52.64,25.323c-13.561,15.424-21.338,35.566-21.338,55.264c0,38.258,29.193,69.825,66.473,73.599v42.41H183.21
		c-4.143,0-7.5,3.358-7.5,7.5v13.393H99.962V266.199z M190.71,301.379v-26.782h48.627v26.782H190.71z M215.024,202.566
		c-32.521,0-58.978-26.457-58.978-58.978c0-34.326,28.11-65.587,58.978-65.587s58.978,31.261,58.978,65.587
		C274.001,176.109,247.544,202.566,215.024,202.566z M99.962,295.49h75.748v13.389c0,4.142,3.357,7.5,7.5,7.5h24.309v13.609H183.21
		c-4.143,0-7.5,3.358-7.5,7.5v13.387H99.962V295.49z M190.71,371.77v-26.782h48.627v26.782H190.71z M99.962,375.872v-9.997h75.748
		v13.395c0,4.142,3.357,7.5,7.5,7.5h24.309v8.542h-88.117C108.683,395.311,99.962,386.59,99.962,375.872z M330.084,375.872
		c0,10.719-8.72,19.439-19.438,19.439h-88.127v-8.542h24.318c4.143,0,7.5-3.358,7.5-7.5v-13.395h75.747V375.872z M330.084,350.875
		h-75.747v-13.387c0-4.142-3.357-7.5-7.5-7.5h-24.318v-13.609h24.318c4.143,0,7.5-3.358,7.5-7.5V295.49h75.747V350.875z"/>
	<path d="M255.259,238.056c0,4.142,3.357,7.5,7.5,7.5h29.998c4.143,0,7.5-3.358,7.5-7.5s-3.357-7.5-7.5-7.5h-29.998
		C258.617,230.556,255.259,233.914,255.259,238.056z"/>
</g>
<g>
</g>
<g>
</g>
<g>
</g>
<g>
</g>
<g>
</g>
<g>
</g>
<g>
</g>
<g>
</g>
<g>
</g>
<g>
</g>
<g>
</g>
<g>
</g>
<g>
</g>
<g>
</g>
<g>
</g>
</svg>
