<?xml version="1.0" encoding="iso-8859-1"?>
<!-- Generator: Adobe Illustrator 19.0.0, SVG Export Plug-In . SVG Version: 6.00 Build 0)  -->
<svg version="1.1" id="Layer_1" xmlns="http://www.w3.org/2000/svg" xmlns:xlink="http://www.w3.org/1999/xlink" x="0px" y="0px"
	 viewBox="0 0 511.997 511.997" style="enable-background:new 0 0 511.997 511.997;" xml:space="preserve">
<g>
	<g>
		<g>
			<path d="M510.655,342.198c-2.762-4.783-8.877-6.422-13.66-3.659c-6.213,3.587-13.289,5.484-20.463,5.484
				c-14.578,0-28.16-7.842-35.447-20.466c-1.787-3.094-5.088-5.001-8.66-5.001c-3.574,0-6.875,1.906-8.66,5.001
				c-0.908,1.573-1.914,3.071-3.008,4.49c-9.936-53.732-29.137-102.753-57.198-145.937c-24.904-38.325-56.774-72.118-94.727-100.442
				C204.257,33.478,145.049,17.986,142.561,17.35c-3.152-0.806-6.5-0.027-8.973,2.087c-2.475,2.114-3.764,5.299-3.459,8.538
				c3.492,37.111,4.637,82.879,3.313,132.362c-0.012,0.368-0.006,0.734,0.021,1.098c0.006,0.055,0.016,0.109,0.02,0.165
				c0.025,0.267,0.055,0.532,0.1,0.795c0.027,0.155,0.066,0.306,0.1,0.459c0.037,0.159,0.066,0.318,0.109,0.475
				c0.053,0.193,0.119,0.38,0.182,0.568c0.039,0.114,0.074,0.231,0.117,0.344c0.072,0.192,0.156,0.378,0.242,0.564
				c0.049,0.107,0.092,0.217,0.145,0.322c0.084,0.169,0.178,0.333,0.271,0.496c0.068,0.119,0.131,0.24,0.203,0.356
				c0.086,0.137,0.18,0.268,0.271,0.4c0.096,0.136,0.186,0.273,0.287,0.404c0.08,0.106,0.17,0.205,0.254,0.308
				c0.123,0.148,0.244,0.295,0.377,0.436c0.078,0.083,0.162,0.161,0.242,0.241c0.148,0.147,0.295,0.294,0.451,0.432
				c0.088,0.077,0.182,0.146,0.271,0.221c0.156,0.128,0.313,0.259,0.479,0.378c0.125,0.091,0.258,0.171,0.389,0.256
				c0.137,0.09,0.271,0.184,0.414,0.267c0.219,0.128,0.447,0.243,0.676,0.354c0.061,0.03,0.119,0.065,0.182,0.094
				c0.328,0.152,0.668,0.287,1.016,0.404l38.426,13.237l-39.258,9.363c-0.016,0.003-0.029,0.01-0.045,0.013
				c-0.225,0.055-0.443,0.124-0.662,0.193c-0.104,0.033-0.211,0.061-0.313,0.097c-0.156,0.055-0.305,0.122-0.457,0.185
				c-0.162,0.066-0.324,0.127-0.48,0.201c-0.027,0.012-0.051,0.027-0.076,0.04c-1.752,0.846-3.184,2.164-4.166,3.763
				c-0.271,0.441-0.5,0.91-0.701,1.393c-0.049,0.113-0.102,0.223-0.146,0.338c-0.045,0.12-0.078,0.246-0.117,0.369
				c-0.064,0.191-0.131,0.381-0.182,0.576c-0.021,0.075-0.033,0.152-0.051,0.228c-0.061,0.251-0.117,0.502-0.158,0.757
				c-0.008,0.052-0.01,0.105-0.018,0.157c-0.041,0.281-0.072,0.563-0.088,0.849c-0.002,0.011-0.004,0.021-0.004,0.032
				c-3.01,55.968-8.764,106.705-15.955,141.287c-11.467-2.261-21.625-9.377-27.576-19.692c-1.787-3.094-5.088-5.001-8.66-5.001
				h-0.002c-3.572,0-6.873,1.906-8.66,5c-7.289,12.624-20.871,20.466-35.445,20.466c-7.178,0-14.254-1.896-20.465-5.483
				c-4.781-2.763-10.898-1.125-13.66,3.657c-2.764,4.782-1.125,10.898,3.656,13.661c9.248,5.342,19.783,8.165,30.469,8.165
				c16.813,0,32.738-7.009,44.105-18.91c11.35,11.887,27.252,18.893,44.047,18.91c0.023,0,0.047,0.004,0.07,0.004
				c0.053,0,0.105-0.006,0.16-0.007c16.752-0.047,32.609-7.045,43.937-18.905c11.367,11.899,27.293,18.909,44.107,18.909
				c16.814,0,32.74-7.009,44.105-18.91c11.369,11.9,27.297,18.91,44.111,18.91c16.813,0,32.738-7.01,44.104-18.909
				c7.234,7.573,16.318,13.155,26.301,16.22c0.482,0.184,0.982,0.325,1.492,0.433c5.254,1.468,10.732,2.256,16.314,2.256
				c10.564,0,20.773-2.77,29.727-7.777c0.539-0.254,1.045-0.558,1.523-0.897c4.705-2.813,9.043-6.242,12.859-10.237
				c11.365,11.9,27.291,18.91,44.107,18.91c10.682,0,21.215-2.823,30.465-8.164C511.778,353.097,513.417,346.981,510.655,342.198z
				 M388.32,344.026c-1.849,0-3.679-0.128-5.484-0.374c-3.801-22.497-10.439-52.886-21.525-81.051
				c-2.022-5.138-7.826-7.666-12.967-5.643c-5.141,2.023-7.666,7.829-5.643,12.968c7.141,18.144,13.221,39.718,17.873,63.221
				c-2.998-2.76-5.617-5.969-7.705-9.586c-1.787-3.094-5.088-5-8.66-5c-3.574,0-6.875,1.906-8.66,5
				c-7.289,12.623-20.869,20.464-35.443,20.464c-14.576,0-28.16-7.842-35.453-20.466c-1.787-3.093-5.088-4.999-8.66-4.998
				c-3.572,0.001-6.873,1.906-8.66,5c-7.287,12.623-20.867,20.464-35.443,20.464s-28.158-7.841-35.447-20.464
				c-1.787-3.094-5.088-5-8.662-5c-3.572,0-6.873,1.906-8.658,5c-5.086,8.808-13.238,15.276-22.652,18.388
				c6.566-33.711,11.844-80.296,14.84-131.45l65.47-15.614c4.326-1.032,7.451-4.797,7.668-9.239
				c0.217-4.442-2.527-8.494-6.732-9.942l-64.108-22.084c0.91-41.121,0.113-79.585-2.318-112.577
				c6.484,2.259,15.012,5.483,25.004,9.845c1.027,12.263,1.807,26.539,2.174,40.105c0.148,5.429,4.594,9.729,9.992,9.729
				c0.092,0,0.184-0.001,0.275-0.004c5.521-0.149,9.875-4.747,9.725-10.267c-0.268-9.874-0.748-20.126-1.383-29.765
				c18.012,9.12,38.652,21.233,59.794,37.012c80.458,60.046,129.501,142.003,145.882,243.661
				C398.201,343.083,393.324,344.026,388.32,344.026z"/>
			<path d="M220.549,399.028c2.762-4.783,1.123-10.899-3.66-13.66c-4.785-2.762-10.9-1.123-13.66,3.66
				c-7.289,12.623-20.871,20.464-35.447,20.464s-28.158-7.842-35.447-20.466c-1.785-3.094-5.088-5-8.66-5s-6.875,1.906-8.66,5.001
				c-7.287,12.623-20.869,20.465-35.445,20.465s-28.158-7.842-35.445-20.467c-2.762-4.783-8.877-6.425-13.66-3.662
				c-4.783,2.761-6.422,8.876-3.662,13.66c10.85,18.794,31.068,30.469,52.767,30.469c16.816,0,32.74-7.01,44.105-18.91
				c11.367,11.9,27.293,18.91,44.107,18.91C189.481,429.491,209.699,417.819,220.549,399.028z"/>
			<path d="M481.533,385.363c-4.785-2.762-10.9-1.122-13.66,3.661c-7.289,12.624-20.871,20.465-35.447,20.465
				c-14.578,0-28.16-7.842-35.449-20.466c-1.785-3.094-5.086-5-8.66-5c-3.572,0-6.873,1.906-8.66,5
				c-7.287,12.623-20.869,20.464-35.443,20.464c-14.576,0-28.16-7.842-35.447-20.466c-2.762-4.783-8.877-6.421-13.66-3.66
				c-4.783,2.761-6.422,8.877-3.66,13.66c10.85,18.792,31.068,30.466,52.767,30.466c16.813,0,32.738-7.01,44.104-18.909
				c11.367,11.9,27.295,18.911,44.109,18.911c21.699,0,41.918-11.674,52.768-30.466C487.954,394.24,486.314,388.124,481.533,385.363
				z"/>
			<path d="M349.21,450.835c-4.785-2.762-10.898-1.123-13.66,3.66c-7.289,12.622-20.871,20.464-35.447,20.464
				c-14.578,0-28.16-7.842-35.447-20.465c-1.785-3.094-5.086-5-8.66-5c-3.572,0-6.873,1.906-8.66,5
				c-7.287,12.622-20.867,20.463-35.445,20.463c-14.576,0-28.158-7.841-35.445-20.464c-2.76-4.782-8.875-6.421-13.66-3.66
				c-4.783,2.761-6.422,8.877-3.66,13.66c10.848,18.79,31.066,30.464,52.766,30.464c16.816,0,32.74-7.008,44.105-18.908
				c11.365,11.9,27.291,18.91,44.107,18.91c21.699,0,41.918-11.673,52.767-30.464C355.632,459.713,353.993,453.597,349.21,450.835z"
				/>
			<path d="M330.697,244.51c1.834,3.263,5.228,5.101,8.725,5.101c1.648,0,3.32-0.409,4.863-1.268
				c4.822-2.69,6.553-8.781,3.861-13.604l-0.141-0.248c-2.629-4.804-8.645-6.605-13.484-4.016
				c-4.871,2.604-6.709,8.663-4.105,13.533C330.5,244.165,330.59,244.324,330.697,244.51z"/>
			<path d="M188.594,108.661c-0.002,0-0.004,0-0.004,0c-5.477,0-9.926,4.41-10,9.87c-0.133,5.401,4.064,9.956,9.492,10.23
				c0.172,0.009,0.344,0.013,0.514,0.013c5.291,0,9.709-4.151,9.979-9.494c0.01-0.202,0.016-0.424,0.016-0.625
				C198.59,113.133,194.115,108.663,188.594,108.661z"/>
		</g>
	</g>
</g>
<g>
</g>
<g>
</g>
<g>
</g>
<g>
</g>
<g>
</g>
<g>
</g>
<g>
</g>
<g>
</g>
<g>
</g>
<g>
</g>
<g>
</g>
<g>
</g>
<g>
</g>
<g>
</g>
<g>
</g>
</svg>
